<?xml version="1.0" encoding="UTF-8" standalone="no"?>
<!-- Created with Inkscape (http://www.inkscape.org/) -->

<svg
   version="1.1"
   id="svg1"
   width="1106"
   height="985"
   viewBox="0 0 1106 985"
   xmlns="http://www.w3.org/2000/svg"
   xmlns:svg="http://www.w3.org/2000/svg">
  <defs
     id="defs1" />
  <g
     id="g1">
    <path
       style="fill:#000000"
       d="m 0.04837541,653.25 c 0.02660647,-182.4625 0.17156612,-329.8 0.32213256,-327.41667 0.77853673,12.32355 3.67983993,23.79753 8.59721603,34 4.139498,8.58855 8.241375,14.41234 14.682184,20.84556 5.382085,5.37576 10.907091,9.53541 17.281268,13.01068 1.703262,0.92863 2.066379,1.26966 1.930562,1.8131 -1.422989,5.69374 -1.770055,15.07279 -0.749212,20.24653 2.334719,11.83261 8.887061,21.12413 19.031185,26.98711 1.295959,0.74902 2.397559,1.39354 2.448,1.43226 0.05044,0.0387 -0.190394,0.72914 -0.535188,1.53425 -0.998587,2.33176 -3.651337,10.38929 -5.075653,15.41691 -2.44616,8.63458 -4.425619,19.14076 -5.315695,28.2136 -0.487656,4.97085 -0.48571,17.10612 0.0035,22 1.202471,12.02838 4.461997,23.19591 9.726712,33.32491 l 2.334569,4.49156 0.811127,6.34177 c 3.586133,28.03801 10.501331,59.72741 18.275418,83.74845 l 1.210406,3.74001 -1.009072,5.09332 c -3.049424,15.39205 -4.216149,28.65281 -3.921126,44.56672 0.261776,14.12052 1.484364,23.97568 4.433498,35.73798 8.755022,34.91846 28.898443,59.45348 58.116223,70.78651 8.38052,3.25065 22.36491,6.16877 29.56236,6.16877 h 1.7129 l 5.68658,6.62751 c 9.24382,10.77337 15.58076,17.58997 26.54416,28.55337 10.81245,10.81246 17.94168,17.45334 28.01421,26.09526 53.7591,46.12369 116.60856,80.15818 183.85469,99.56173 34.78446,10.03689 70.67401,16.19542 105.81197,18.15698 3.48334,0.19445 7.08334,0.39813 8,0.4526 0.91667,0.0545 -118.37083,0.12609 -265.08333,0.15914 L 0,985 Z M 562.43547,984.75091 c 2.16451,-0.0581 5.61451,-0.058 7.66667,4.3e-4 2.05216,0.0584 0.28119,0.10596 -3.93547,0.10573 -4.21667,-2.3e-4 -5.89571,-0.048 -3.7312,-0.10616 z m 12.89786,0.0342 c 0.45834,-0.0633 10.20834,-0.94544 21.66667,-1.96037 21.90786,-1.94051 28.30959,-2.69818 40.83333,-4.83284 91.65092,-15.62175 176.81711,-57.14858 246.5,-120.19281 11.13758,-10.07651 24.6525,-23.57077 34.55935,-34.50652 l 4.11358,-4.54081 2.13497,2.09335 c 5.88597,5.77123 13.37044,7.2305 20.45331,3.98786 2.31277,-1.05882 2.27464,-1.02101 -1.42787,1.41589 -8.9555,5.8943 -12.99518,11.90153 -12.94585,19.25118 0.0354,5.26739 2.23316,9.97046 6.7542,14.45334 2.90176,2.87726 5.19473,4.35815 8.74678,5.64902 2.19179,0.79653 2.91069,0.88898 6.94487,0.89307 3.79552,0.004 4.88853,-0.11744 6.98185,-0.77483 5.51069,-1.73056 10.9113,-5.08165 16.01157,-9.93522 4.14516,-3.94466 7.06311,-7.93126 12.5392,-17.13148 5.95879,-10.01121 6.65963,-10.74579 14.13401,-14.81451 7.0602,-3.84322 10.4873,-6.14605 13.9774,-9.39199 8.4,-7.81245 11.139,-14.60997 8.6175,-21.38641 -0.9414,-2.52993 -3.9821,-5.68762 -6.6707,-6.92721 -1.7847,-0.82287 -2.5057,-0.96425 -4.9242,-0.96557 -2.3668,-10e-4 -3.1417,0.14307 -4.7066,0.87685 -1.0304,0.48311 -2.4736,1.42061 -3.2071,2.08333 -0.7336,0.66272 -1.4066,1.20494 -1.4957,1.20494 -0.089,0 -0.2438,-1.1625 -0.3439,-2.58333 -0.3812,-5.4139 -3.1981,-11.10994 -7.72167,-15.61386 -2.45267,-2.44205 -3.59209,-3.30008 -5.86769,-4.41862 -4.16572,-2.0476 -7.3375,-2.77288 -12.15731,-2.77995 -5.42832,-0.008 -9.46576,0.91194 -15.59735,3.55381 -0.33369,0.14377 0.94123,-2.0907 2.88842,-5.06236 3.80802,-5.81151 9.94812,-15.67742 13.02528,-20.92902 l 1.95316,-3.33333 6.86525,-0.0188 c 5.77338,-0.0158 7.40537,-0.13542 10.26138,-0.75213 6.53753,-1.41165 13.07053,-4.24355 19.28563,-8.35988 9.6432,-6.38675 21.6394,-18.26504 33.7004,-33.36919 16.6258,-20.82064 35.4241,-50.10035 45.4768,-70.83334 4.9079,-10.12237 6.5943,-15.39539 6.8758,-21.5 0.431,-9.34592 -2.6761,-16.82866 -10.0433,-24.18691 -7.22,-7.21114 -16.053,-11.7493 -25.4358,-13.06811 -5.6826,-0.79874 -10.8592,-0.0711 -17.1089,2.40503 -0.4182,0.16566 -0.6061,-0.23679 -0.9601,-2.05534 -0.7006,-3.59875 -2.5599,-8.94025 -4.5865,-13.17647 l -1.8731,-3.91514 0.5546,-5.9182 c 0.3051,-3.255 0.7093,-8.54319 0.8983,-11.75152 0.189,-3.20834 0.505,-8.53334 0.7023,-11.83334 0.1972,-3.3 0.419,-15.73427 0.4929,-27.63171 l 0.1344,-21.63171 4.2452,-4.37389 c 13.0965,-13.4935 26.5379,-32.36216 38.2512,-53.69602 6.8901,-12.54913 14.9494,-29.88606 16.2096,-34.86944 0.5747,-2.27266 0.6687,-3.45782 0.5502,-6.9358 -0.1268,-3.72363 -0.2746,-4.57506 -1.3158,-7.58075 -1.5082,-4.35377 -3.4807,-7.77743 -6.6683,-11.57449 -6.5709,-7.82703 -16.0652,-13.59105 -25.615,-15.55097 -4.4869,-0.92085 -11.4721,-0.78874 -15.1619,0.28676 -1.2807,0.3733 -2.3566,0.65062 -2.391,0.61626 -0.034,-0.0344 -0.2333,-1.63651 -0.4421,-3.56035 -1.373,-12.64786 -5.8801,-22.24912 -14.4835,-30.85293 -5.4716,-5.4719 -10.6649,-8.84996 -18.1812,-11.82635 -4.0565,-1.60632 -12.1867,-3.73975 -16.507,-4.33154 l -3,-0.41095 -4.16663,-8.50913 C 957.55771,195.4901 894.001,124.95857 815.83333,75.612291 788.11601,58.114686 756.64065,42.45769 726.09228,30.971803 676.28649,12.245318 624.33437,1.999836 570.16667,0.22170013 568.7,0.1735546 688.6625,0.10397618 836.75,0.06708141 L 1106,0 V 492.5 985 l -265.75,-0.0499 c -146.1625,-0.0275 -265.375,-0.10172 -264.91667,-0.16499 z m -234,-68.18558 c -2.35964,-0.8998 -19.67242,-9.67267 -26.16666,-13.25938 -41.60705,-22.97918 -81.21822,-54.61479 -115.42376,-92.18362 l -5.75709,-6.32316 1.75709,-0.25786 c 13.8952,-2.03918 22.44423,-4.22172 32.59042,-8.3202 24.54617,-9.91525 47.75398,-28.92613 67.68193,-55.44224 4.58833,-6.10523 11.28531,-16.10261 15.07282,-22.501 2.56054,-4.32562 9.75012,-17.33795 10.01628,-18.12834 0.0586,-0.17396 1.14656,0.36932 2.41774,1.2073 7.37908,4.86439 15.67108,7.88201 25.02985,9.10884 11.32735,1.48488 20.92638,-0.28582 28.15535,-5.19374 4.56192,-3.0972 9.01442,-8.64808 10.93814,-13.63645 1.6656,-4.31906 2.13261,-7.4687 1.92518,-12.98398 -0.19836,-5.27413 -0.96278,-9.06793 -2.89189,-14.35233 L 385.6444,661.5 l 3.70904,-7.39568 c 2.03998,-4.06763 3.89864,-7.65497 4.13036,-7.97187 0.38467,-0.52607 1.01252,-0.24856 7.21876,3.19066 3.73859,2.07177 9.04744,5.07962 11.79744,6.68411 2.75,1.6045 6.98965,3.91141 9.42145,5.12647 5.18096,2.5887 6.79259,3.99034 7.56018,6.57511 0.6914,2.3282 0.65381,3.15576 -0.18129,3.99086 -0.52821,0.52821 -0.95703,0.65301 -1.75,0.5093 -0.57769,-0.10469 -2.02534,-0.28464 -3.21701,-0.39988 -1.91862,-0.18554 -2.25206,-0.12831 -2.91263,0.49992 -1.08566,1.03252 -1.25957,2.1976 -0.6274,4.20309 0.43971,1.3949 0.99794,2.17315 2.70257,3.76775 1.85167,1.73215 3.2744,2.5676 10.30119,6.049 14.55995,7.21367 19.06389,10.98317 17.53457,14.67527 -0.65382,1.57846 -2.14498,1.85272 -6.56224,1.20696 -6.06333,-0.88639 -11.51153,-1.33431 -13.1626,-1.08215 -0.85793,0.13102 -1.9636,0.5558 -2.45706,0.94395 -1.69965,1.33695 -2.29394,4.13896 -1.35464,6.38701 0.75824,1.81473 2.55808,2.68123 10.87158,5.23394 2.475,0.75997 5.18432,1.728 6.02072,2.15119 5.48642,2.77594 10.25873,9.77006 9.91695,14.53393 l -0.10434,1.45439 -1.78484,0.10196 c -1.07775,0.0616 -4.26625,-0.37498 -8.04849,-1.10196 -9.40165,-1.80706 -11.26807,-1.48387 -9.72868,1.68466 0.99596,2.04999 3.08697,4.22496 9.95523,10.35498 7.20253,6.42834 11.24167,11.15361 13.28413,15.54068 1.08942,2.34001 1.05436,3.40593 -0.15171,4.61199 -0.88686,0.88686 -1.17871,0.97428 -3.25,0.97352 -3.97035,-10e-4 -8.81308,-1.59201 -21.69911,-7.12683 -6.73772,-2.89399 -11.94225,-4.53959 -15.09395,-4.77251 -2.51491,-0.18586 -2.51833,-0.18498 -3.41667,0.88264 -0.49458,0.58778 -0.89924,1.36316 -0.89924,1.72306 0,1.48454 1.69133,3.73266 6.49099,8.62781 3.25923,3.32408 5.15242,5.51458 5.30857,6.14221 0.33911,1.36312 -0.55685,2.45572 -3.04125,3.70867 -2.73068,1.37716 -4.85783,1.81579 -8.80566,1.81579 -1.8314,0 -3.60776,0.14875 -3.94747,0.33056 -0.91343,0.48885 -1.08265,1.918 -0.49369,4.16944 0.69035,2.63907 1.56681,4.07173 4.97332,8.12935 4.11647,4.9033 4.87959,6.63633 3.47968,7.90232 -0.59138,0.53481 -1.20935,0.63249 -3.91666,0.61908 -3.8552,-0.0191 -6.29802,-0.62152 -14.63731,-3.60982 -8.82013,-3.16061 -13.24041,-4.09914 -14.57719,-3.0951 -1.67528,1.25829 -0.26801,5.20551 3.72544,10.44942 1.23061,1.61594 3.43214,4.51211 4.89229,6.43591 3.05157,4.02058 4.20773,6.26828 4.21235,8.18932 0.008,3.53338 -3.16198,4.00659 -10.49119,1.56584 -3.77915,-1.25852 -17.81468,-8.13662 -26.00488,-12.74367 -9.2244,-5.18879 -16.7885,-8.67598 -18.81916,-8.67598 -1.26669,0 -1.46562,0.67828 -1.01895,3.47434 0.72743,4.55351 2.88743,8.53643 6.55191,12.08135 1.16877,1.13063 4.78614,4.19958 8.03861,6.81988 9.64554,7.77077 14.06867,12.64796 14.07712,15.52219 0.006,2.20243 -1.93417,2.56285 -7.73505,1.43658 -4.54523,-0.88248 -7.37559,-0.88724 -8.24897,-0.0139 -1.12337,1.12338 -0.32754,2.42613 4.29078,7.02386 4.25214,4.23318 8.22189,7.56317 17.86303,14.98425 10.36284,7.97658 12.11304,9.69282 11.42489,11.20317 -1.26945,2.78613 -7.9483,1.42374 -18.09155,-3.69042 -2.93334,-1.47897 -9.53334,-5.32337 -14.66667,-8.54311 -10.46177,-6.56187 -15.03012,-9.14887 -20.20838,-11.44374 -3.53151,-1.56507 -5.56295,-1.895 -5.87179,-0.95364 -0.0723,0.22046 1.2479,1.86608 2.93383,3.65692 6.92618,7.35721 15.15356,14.47817 29.00875,25.10766 26.60324,20.40961 40.71263,33.47344 37.97791,35.16359 -0.1795,0.11094 -16.00623,-7.77214 -35.17051,-17.51795 -37.76621,-19.20564 -35.23778,-18.10237 -36.38814,-15.87782 -0.46099,0.89146 -0.45354,1.12363 0.081,2.5233 1.14612,3.00108 4.51567,5.93798 17.63733,15.37271 13.59669,9.77628 18.38217,13.81126 20.33774,17.1482 0.77085,1.31536 0.952,2.02754 0.97156,3.81968 l 0.024,2.20287 -1.7054,-0.0425 c -1.3395,-0.0334 -2.48039,-0.42675 -5.31753,-1.83333 -3.06857,-1.52131 -3.89261,-1.7908 -5.47593,-1.7908 -2.42432,0 -3.23649,0.55759 -5.32907,3.65866 -0.9235,1.36857 -1.96765,2.64274 -2.32033,2.83149 -0.95544,0.51133 -2.30377,0.39029 -4.35174,-0.39066 z m 608.76202,-59.74974 c -3.36492,-1.05162 -7.10157,-4.37245 -8.64511,-7.68308 -1.0452,-2.24179 -1.06987,-5.35461 -0.0593,-7.4781 1.6989,-3.56972 6.64337,-7.31869 16.94236,-12.84595 2.65834,-1.42667 5.88334,-3.28102 7.16667,-4.12078 l 2.33333,-1.52683 -2.33333,-0.26626 c -4.9629,-0.56632 -8.06207,-3.04346 -12.16667,-9.72471 -1.19166,-1.93973 -2.34918,-3.52917 -2.57226,-3.53208 -0.22308,-0.003 -1.79808,1.19835 -3.5,2.66947 -5.55402,4.80083 -9.12646,5.86198 -12.87191,3.82345 -2.10893,-1.14782 -4.37827,-3.50611 -5.48881,-5.70395 -2.4922,-4.93224 -1.88729,-10.67792 2.25614,-21.42962 1.01782,-2.64111 1.78693,-4.86567 1.70914,-4.94346 -0.0778,-0.0778 -2.34913,2.00811 -5.0474,4.63535 -5.02931,4.8969 -9.41829,10.04816 -11.4849,13.47961 -1.26052,2.09299 -1.37967,3.12598 -0.84389,7.31625 0.31533,2.46618 -0.15892,3.14761 -2.19062,3.14761 -3.49008,0 -5.5913,-2.00436 -10.772,-10.27544 l -0.90329,-1.44211 -1.61392,1.50964 c -2.13651,1.99845 -4.87284,3.7204 -7.61078,4.7894 -3.28078,1.28096 -7.16731,1.27774 -9.78568,-0.008 -1.03776,-0.50962 -2.44203,-1.54112 -3.1206,-2.2922 -1.54454,-1.70963 -3.10015,-4.99313 -3.59219,-7.58222 l -0.37655,-1.98137 -2.34577,2.22452 c -6.84671,6.49283 -14.26107,8.66149 -19.46037,5.69205 -3.33916,-1.90708 -4.88309,-5.5502 -4.85985,-11.46752 0.0182,-4.64517 0.45601,-6.62357 2.65797,-12.01225 0.99098,-2.42516 1.86704,-5.15038 1.98234,-6.16667 l 0.20662,-1.82108 -2.20604,2.33334 c -5.5186,5.83701 -11.6227,13.55001 -13.66724,17.26959 -1.7843,3.24614 -1.92572,3.99409 -1.29387,6.8433 0.60371,2.72238 0.41018,3.6358 -0.96063,4.534 -0.70873,0.46437 -0.98289,0.46472 -2.76518,0.004 -5.34305,-1.38262 -9.11014,-5.54449 -9.42286,-10.41034 -0.12558,-1.9541 -0.18177,-2.07923 -0.84506,-1.88205 -1.30834,0.38892 -3.35547,1.74331 -6.04387,3.99866 -3.92757,3.29491 -5.64795,4.32766 -9.16667,5.50276 -4.42,1.4761 -9.17557,1.72383 -12.67677,0.66037 -2.07118,-0.6291 -2.70864,-1.01855 -4.34401,-2.65392 -1.58923,-1.58923 -2.03585,-2.30263 -2.61459,-4.17637 C 787.31408,792.61333 787,791.13849 787,790.57877 c 0,-0.98139 -0.12775,-0.89327 -3.58333,2.47172 -6.26935,6.105 -10.21432,8.3767 -14.58334,8.39779 -2.59917,0.0126 -4.20138,-0.62342 -6.38307,-2.53366 -1.22897,-1.07606 -4.22857,-5.35767 -4.62209,-6.59756 -0.11354,-0.35771 -0.30882,-0.64311 -0.43397,-0.63421 -0.12514,0.009 -0.90253,0.84872 -1.72753,1.86626 -2.0614,2.5425 -6.33297,5.91556 -9.32532,7.36379 -2.01385,0.97466 -2.98078,1.23436 -5.03957,1.35355 -3.08775,0.17874 -4.59375,-0.26301 -6.37124,-1.86886 -2.41915,-2.18555 -3.76089,-5.84219 -4.14411,-11.2939 l -0.21851,-3.10857 -3.21338,3.11813 c -8.59425,8.33949 -20.32513,14.99772 -30.07533,17.07018 -2.95221,0.62751 -8.81867,0.69424 -11.11254,0.1264 -4.28605,-1.061 -7.88974,-3.42313 -10.4032,-6.81904 l -1.52462,-2.05989 -1.9961,2.98421 c -2.38112,3.5598 -6.06066,7.34067 -8.59474,8.83142 -5.96763,3.51064 -10.89757,1.41409 -14.53281,-6.18032 -0.88836,-1.85589 -1.70435,-3.38001 -1.8133,-3.38694 -0.10896,-0.007 -1.47364,1.90219 -3.03263,4.2425 -5.01536,7.52889 -7.69361,10.22383 -11.20402,11.27385 -2.30128,0.68835 -4.31617,0.23862 -6.55471,-1.46303 -3.45211,-2.62416 -4.95184,-6.10392 -4.90942,-11.39111 0.0433,-5.39566 1.22197,-9.78844 5.72669,-21.34248 4.41359,-11.32034 5.53996,-15.49093 4.88666,-18.09386 -0.42042,-1.6751 -1.0826,-1.28612 -2.89862,1.70269 -6.53781,10.75996 -16.6201,21.2258 -28.57508,29.66214 -4.47869,3.16049 -7.47114,4.9236 -13.37663,7.88127 -6.67243,3.34178 -8.88723,5.44426 -9.84823,9.34876 -0.54536,2.21579 -0.74402,6.77206 -0.47509,10.89607 0.29705,4.55508 0.37,4.82971 3.59824,13.54476 0.56518,1.52579 1.02761,3.14356 1.02761,3.59506 0,1.21442 -0.90186,2.37814 -2.63062,3.39444 -1.26436,0.74328 -1.91928,0.89856 -3.70272,0.87789 -2.93267,-0.034 -5.47205,-1.26493 -8.14099,-3.94628 -4.82522,-4.84767 -6.05659,-11.03021 -4.52018,-22.69527 0.94238,-7.15493 1.01717,-6.70333 -1.14714,-6.9267 -3.75903,-0.38797 -7.06136,-2.74917 -8.84945,-6.32746 -2.0911,-4.18466 -0.89305,-7.79855 2.95077,-8.90095 1.16074,-0.33289 1.39984,-0.10972 4.52554,4.22404 1.62075,2.24715 2.85301,3.07817 4.73237,3.19144 l 1.21056,0.073 0.57227,-3.33333 c 1.18099,-6.87903 3.03312,-12.54285 8.33878,-25.5 5.20846,-12.71977 5.66686,-14.05192 6.19388,-18 0.68352,-5.12055 1.15106,-5.57203 5.83385,-5.63344 5.75811,-0.0755 8.12124,2.21695 8.04054,7.8001 -0.0667,4.61631 -2.02025,10.75539 -6.89458,21.66667 -4.88697,10.93958 -5.86958,14.21067 -4.33476,14.43043 2.45861,0.35204 14.01738,-10.93017 23.04679,-22.49536 10.49367,-13.44067 17.66805,-28.47888 18.33647,-38.43507 0.38637,-5.75517 -1.0967,-8.99867 -5.02847,-10.9973 -2.28998,-1.16406 -2.32024,-1.16929 -6.66667,-1.15311 -4.98825,0.0186 -9.33233,0.91459 -14.68146,3.0282 -21.56428,8.52073 -44.80415,35.39615 -55.01415,63.62032 -3.06957,8.48541 -4.64613,15.56025 -4.14532,18.60217 0.3487,2.11805 0.58644,2.16875 4.36373,0.93064 l 3.3827,-1.10877 0.6026,0.78892 c 0.33143,0.43391 0.77802,1.20635 0.99243,1.71652 0.35885,0.85388 0.27367,1.07718 -1.07181,2.80976 -1.73627,2.23581 -4.96604,4.54015 -7.35989,5.25105 -2.47431,0.73479 -6.17621,0.66145 -8.38827,-0.16618 -5.43408,-2.03315 -8.51259,-7.96474 -8.12261,-15.65041 0.34202,-6.7404 2.11548,-12.76463 6.23274,-21.17181 9.93797,-20.29272 30.70907,-43.33992 48.90119,-54.25978 14.20767,-8.52819 28.84622,-12.97176 41.10854,-12.4786 7.45008,0.29962 12.61312,2.16262 16.33918,5.89573 3.60033,3.60713 5.10488,7.79935 5.08765,14.17598 -0.0179,6.63886 -1.99609,14.27427 -5.92885,22.88465 -1.03382,2.26344 -1.95125,4.28047 -2.03873,4.48227 -0.10178,0.23478 0.6051,0.43828 1.96285,0.56507 4.82554,0.45061 8.69118,3.01792 9.52396,6.32522 1.1202,4.44872 -0.0654,9.29566 -5.2776,21.57613 -4.30704,10.14777 -6.26835,16.53344 -5.35777,17.44401 0.22325,0.22325 0.46125,0.23791 0.63832,0.0393 0.43256,-0.48515 11.01608,-17.85771 13.29091,-21.81667 4.52843,-7.88096 8.34745,-16.37618 10.32214,-22.96104 1.11948,-3.73307 1.63082,-4.21013 4.47135,-4.17153 2.3083,0.0314 4.92689,1.20398 6.74204,3.01913 3.00532,3.00532 2.51571,6.12859 -3.44041,21.94678 -3.72374,9.88946 -5.11283,14.09133 -5.66212,17.12735 -0.43506,2.4047 -0.31763,2.64327 1.44165,2.92876 1.10096,0.17866 1.34338,0.0717 2.41705,-1.06675 1.42761,-1.5137 5.17766,-9.08037 8.41996,-16.98936 7.46084,-18.19938 18.57536,-49.28256 19.36855,-54.16667 1.11088,-6.84027 2.18897,-9.70271 4.07368,-10.81603 2.38266,-1.40747 7.56493,0.36189 9.49992,3.24352 2.85855,4.25702 2.21638,9.99814 -2.65838,23.76614 -1.3579,3.83517 -2.65446,7.79804 -2.88123,8.80637 -0.22678,1.00833 -0.49443,2.12763 -0.59478,2.48733 -0.11415,0.40917 0.67312,-0.12998 2.10296,-1.44016 2.54534,-2.33235 5.98189,-4.72083 8.21108,-5.70691 10.04778,-4.44461 17.05203,0.25396 17.80003,11.94055 0.31526,4.92564 -0.29006,8.81232 -2.07553,13.32667 -0.82803,2.09355 -1.59438,4.55691 -1.70301,5.47414 l -0.19751,1.66767 0.80132,-0.5316 c 2.07521,-1.3767 7.88753,-8.75222 10.80859,-13.71552 5.31128,-9.02464 8.1949,-16.51965 16.73697,-43.50217 l 1.95223,-6.16667 2.15525,0.0223 c 3.89529,0.0404 7.58612,2.40636 9.31048,5.96842 0.97859,2.0215 1.25498,5.70352 0.67298,8.96521 -1.04394,5.85051 -3.64946,12.49554 -10.95496,27.93919 -5.52395,11.67748 -8.01788,17.82115 -9.38224,23.1127 -0.94777,3.67581 -1.37199,8.49218 -0.74798,8.4921 0.1375,-2e-5 1.45394,-1.0253 2.92543,-2.27841 3.03351,-2.58331 6.18911,-6.23857 8.96821,-10.38822 2.23487,-3.33704 7.02997,-12.96858 9.62517,-19.33334 1.00917,-2.475 2.64408,-6.45 3.63314,-8.83333 l 1.79829,-4.33333 1.46485,0.0696 c 2.25789,0.10722 5.31201,1.7899 7.46024,4.11024 3.59554,3.88361 3.41055,5.03796 -3.19167,19.91674 -4.00996,9.03687 -6.93076,17.01748 -6.93245,18.94185 -7.8e-4,0.88302 0.24413,1.68361 0.68744,2.24719 0.64909,0.82518 0.74205,0.84787 1.61808,0.39485 3.4496,-1.78385 13.82126,-16.86929 19.24969,-27.9984 l 1.94358,-3.98465 0.0219,-4.34869 c 0.0236,-4.68421 0.33056,-6.24121 1.82578,-9.26035 3.57701,-7.22267 9.21685,-10.73431 14.68118,-9.14123 3.52278,1.02704 6.30006,3.46405 6.30323,5.53099 0.002,1.36785 -1.21299,3.42328 -3.86671,6.54089 -1.39561,1.63956 -2.83307,3.62937 -3.19436,4.4218 l -0.65688,1.44079 5.42198,13.30239 c 2.98209,7.31631 5.45447,13.26796 5.49417,13.22588 0.0397,-0.0421 2.19479,-3.90151 4.78907,-8.57651 5.73101,-10.32753 11.5182,-21.75684 14.45327,-28.54423 3.51026,-8.11753 6.95137,-18.61905 7.52208,-22.95577 l 0.21933,-1.66667 1.68894,0.0678 c 2.29484,0.0921 5.02529,1.17151 7.89825,3.12232 3.39682,2.30654 4.23419,3.74702 4.22977,7.27629 -0.005,4.19961 -1.56771,8.73883 -6.68496,19.42104 -3.40344,7.10463 -4.41421,9.42257 -5.17451,11.86636 -0.41953,1.34848 -0.41056,1.40369 0.17695,1.08926 0.34038,-0.18216 2.42727,-2.48617 4.63753,-5.12001 2.55507,-3.04472 4.70681,-5.26243 5.90813,-6.08926 1.69962,-1.16979 2.0946,-1.29942 3.931,-1.29009 2.58503,0.0131 4.92154,1.21779 7.20241,3.71342 2.10754,2.30599 3.00579,4.20953 3.00579,6.3698 0,2.85456 -0.49202,4.01634 -7.10972,16.78784 -4.65211,8.97811 -5.88563,12.13291 -6.13644,15.69428 -0.2221,3.15377 0.18739,3.51582 2.31496,2.04673 3.5041,-2.41959 13.51932,-15.14778 18.50767,-23.52112 2.85589,-4.79385 6.92816,-12.67658 8.18889,-15.85132 0.30941,-0.77917 0.7547,-1.41667 0.98952,-1.41667 0.91413,0 4.81121,2.59759 6.75121,4.5 2.17617,2.13401 3.49391,4.41422 3.49391,6.04586 0,1.74879 -0.95153,4.03222 -6.16207,14.78747 C 889.59157,793.53861 888,797.35275 888,799.31781 v 1.40183 l 1.08333,-0.23452 c 4.59478,-0.99466 10.54406,-6.67462 16.74311,-15.98512 4.04391,-6.07365 7.44613,-12.7183 10.66717,-20.83333 0.69131,-1.74167 1.31364,-3.22976 1.38296,-3.30686 0.29069,-0.32334 6.44302,3.04404 7.8922,4.31966 2.35815,2.07573 3.3053,3.91451 3.48874,6.77299 0.0841,1.31009 -0.0104,2.9733 -0.20995,3.69602 -0.19955,0.72272 -0.30543,1.37142 -0.23529,1.44157 0.0701,0.0701 2.15328,-1.73797 4.62919,-4.01802 6.93482,-6.38623 9.94849,-8.05489 13.01724,-7.20756 2.68349,0.74094 5.46924,5.11473 5.78815,9.08773 0.33726,4.2016 -1.00812,7.7286 -7.90159,20.71447 -1.65446,3.11666 -3.32286,6.49166 -3.70754,7.5 -0.81057,2.12463 -1.68084,5.9939 -1.43691,6.38857 0.28207,0.45641 3.89425,-1.5725 5.71657,-3.21092 2.4715,-2.2221 4.34706,-5.24135 7.56392,-12.17631 3.41069,-7.35281 4.4703,-9.17557 6.82856,-11.7466 3.31882,-3.61827 8.82822,-6.85338 13.71144,-8.05133 2.67255,-0.65563 8.17522,-0.6992 10.4787,-0.083 4.57498,1.22391 7.88543,4.03177 10.15613,8.61423 1.72412,3.47941 2.0709,6.19172 1.2121,9.4801 -0.78873,3.02003 -0.67747,4.21888 0.66812,7.19905 1.42983,3.16675 1.39059,3.93368 -0.39345,7.69036 -0.65739,1.38427 -1.14597,2.82967 -1.08574,3.21202 l 0.10951,0.69518 1.33333,-0.70888 c 1.95502,-1.0394 8.403,-5.32018 10.3488,-6.87049 0.9376,-0.74705 2.6138,-2.70054 3.7871,-4.41362 2.878,-4.20188 4.4069,-5.07873 6.3915,-3.66556 2.8621,2.038 1.3424,6.31556 -4.1741,11.749 -3.1231,3.07597 -6.057,5.07184 -13.54068,9.21137 -9.15548,5.06426 -9.94866,5.89749 -17.31262,18.18679 -5.06018,8.44464 -7.17934,11.39843 -10.53809,14.68846 -6.8785,6.73777 -14.63981,9.78436 -20.36656,7.99462 z m 1.53416,-9.85769 c 2.35195,-1.11266 5.86624,-4.31219 9.69358,-8.82539 2.81994,-3.32528 4.01024,-5.07573 4.01024,-5.89745 0,-0.54316 -0.73269,-0.26304 -4.93967,1.8885 -8.0384,4.111 -14.0916,8.31334 -15.27712,10.60589 -0.52906,1.02309 -0.52405,1.03904 0.67031,2.13359 1.55607,1.42604 2.97991,1.44915 5.84266,0.0949 z m 19.11839,-31.92513 c 5.33501,-2.62642 9.88092,-10.02573 12.99122,-21.14561 l 1.09421,-3.91202 2.91667,-0.005 c 2.82745,-0.005 2.91667,-0.0283 2.91667,-0.77821 0,-0.42546 -0.4125,-1.58022 -0.91667,-2.56614 -1.62779,-3.1832 -4.70213,-3.98005 -8.55327,-2.21694 -2.61579,1.19755 -7.10905,5.70822 -9.85179,9.88997 -4.82111,7.35056 -7.86637,16.02764 -7.19536,20.50226 l 0.23575,1.5721 2.08986,-0.13308 c 1.48482,-0.0945 2.72183,-0.44419 4.27271,-1.20768 z m -275.5763,-17.0979 c 4.6331,-2.43318 11.21338,-12.18711 14.48362,-21.46903 1.85624,-5.26857 2.70479,-9.31892 2.91354,-13.90702 l 0.19292,-4.24036 -1.04805,0.30058 c -6.24594,1.79131 -15.90988,12.43777 -21.19222,23.3468 -2.76443,5.70908 -3.74251,10.24965 -2.80754,13.03359 1.07808,3.21008 4.42574,4.52776 7.45773,2.93544 z m 102.99652,-4.85443 c 3.98169,-1.35669 6.09518,-5.50195 5.73252,-11.24336 -0.27485,-4.35125 -1.8932,-8.8507 -4.13327,-11.49159 l -0.95031,-1.12036 -5.57519,9.3605 c -3.06636,5.14827 -5.5752,9.43993 -5.5752,9.53702 0,0.0971 0.237,0.17652 0.52666,0.17652 0.28967,0 1.45159,0.9375 2.58204,2.08334 3.45909,3.50615 4.21314,3.78134 7.39275,2.69793 z m 149.74299,30.5107 c 0.22611,-0.2278 0.49508,-0.33022 0.59771,-0.22759 0.10263,0.10263 -0.0824,0.28902 -0.41111,0.41419 -0.47507,0.1809 -0.51335,0.14261 -0.1866,-0.1866 z M 170.33333,778.79386 c -15.62747,-1.87162 -26.56994,-6.29127 -36.91429,-14.90963 -13.05796,-10.87918 -22.29016,-28.72341 -26.06938,-50.38756 -1.52729,-8.75511 -1.8323,-12.86851 -1.84115,-24.83 -0.0127,-17.11747 1.44306,-29.37961 5.36208,-45.16667 9.15505,-36.87956 35.36696,-85.5706 63.6064,-118.15478 20.79543,-23.99487 42.50036,-39.47296 62.63189,-44.66365 7.25079,-1.86954 13.89791,-2.402 20.89112,-1.67345 18.06182,1.88167 36.65267,8.96837 44.65204,17.02104 2.88274,2.90195 4.18445,5.17411 5.15214,8.9932 3.76646,14.86459 1.72523,33.59615 -6.29982,57.81097 -7.76668,23.43525 -18.06214,42.80946 -29.78758,56.05488 -5.06337,5.71974 -11.34048,9.8273 -17.55011,11.48426 -3.81824,1.01885 -9.16341,1.03972 -12.34718,0.0482 -7.48123,-2.32987 -13.39248,-10.27295 -11.86111,-15.93803 0.82134,-3.03841 3.79405,-5.46396 9.18115,-7.49128 6.74415,-2.53801 6.83847,-2.59322 10.1994,-5.97041 4.29997,-4.32079 7.81019,-9.69079 12.32451,-18.85428 5.34019,-10.83989 9.77022,-22.62431 12.46838,-33.16738 2.09901,-8.20191 4.53485,-24.53386 4.53485,-30.40558 v -2.91038 l -0.91667,0.14298 c -0.50417,0.0786 -1.96667,0.2319 -3.25,0.34059 -12.84852,1.08815 -29.82015,8.92785 -44.22377,20.42829 -27.59541,22.03331 -52.08889,58.12442 -67.08498,98.84967 -6.78228,18.41881 -11.05833,36.70917 -12.91012,55.22181 -0.55465,5.54485 -0.5489,20.8166 0.01,25.5 2.06102,17.28337 7.50079,27.74831 16.80434,32.32795 4.76492,2.34551 7.4295,2.92386 13.57161,2.94574 5.87992,0.0209 10.13286,-0.63046 16.97605,-2.60013 30.00497,-8.63634 56.06222,-32.45768 77.70585,-71.03809 2.60786,-4.64859 6.63226,-12.56231 9.91116,-19.48964 3.29174,-6.95444 4.1732,-8.60116 5.6715,-10.59521 5.06628,-6.74258 13.38198,-7.2301 17.39586,-1.01985 3.11599,4.82104 3.03272,11.53278 -0.24674,19.88687 -1.3027,3.31849 -8.81733,18.02732 -14.85795,29.08236 -18.64844,34.12875 -41.72402,59.13079 -66.305,71.84043 -10.95547,5.66455 -19.65376,8.47447 -32.08407,10.36455 -4.79129,0.72853 -7.03122,0.87711 -14.5,0.96179 -4.85833,0.0551 -9.35833,0.0373 -10,-0.0396 z m 726.40846,-27.69685 c -3.36695,-0.64625 -2.22256,-10.56711 1.69799,-14.72009 2.11013,-2.23523 3.66796,-2.34335 7.29791,-0.50648 3.58406,1.81364 5.26231,4.25961 5.26231,7.66954 0,1.63728 -0.17658,2.27461 -0.98218,3.5449 -1.86026,2.93333 -4.94809,4.27766 -9.65413,4.20306 -1.57503,-0.025 -3.20489,-0.11088 -3.6219,-0.19093 z m -119.63206,-9.48298 c -1.41076,-1.77191 -1.65175,-7.21919 -0.45832,-10.3599 2.75862,-7.2598 8.42075,-9.34912 13.42621,-4.95426 3.68085,3.23182 3.32984,8.12857 -0.85375,11.91027 -2.694,2.43521 -5.46133,3.59574 -8.90758,3.73558 -2.09791,0.0851 -2.94441,-0.002 -3.20656,-0.33169 z M 179.38131,725.41667 c -1.63252,-3.08382 -2.7294,-10.30863 -2.39117,-15.75 0.2773,-4.46117 0.74387,-5.63932 2.57851,-6.51097 3.15121,-1.49718 7.34699,-0.34658 11.72573,3.2155 4.2067,3.42213 8.01136,5.18512 10.27387,4.76067 0.94386,-0.17707 1.09842,-0.34272 1.09842,-1.17729 0,-1.45919 -1.83015,-4.81225 -6.16112,-11.28791 -2.14575,-3.20834 -4.20581,-6.42612 -4.5779,-7.15064 -2.01156,-3.91677 -2.42855,-7.27082 -1.21548,-9.77669 0.98832,-2.04159 2.25556,-2.73655 4.99288,-2.73809 2.67085,-0.002 3.25809,0.38722 5.82173,3.85378 2.18479,2.95427 7.51216,8.33303 9.66728,9.76052 3.42444,2.26825 3.88903,1.24172 2.9388,-6.49336 -0.25545,-2.07936 0.23789,-3.7349 1.52286,-5.11047 1.18831,-1.27209 3.0576,-1.3646 5.28803,-0.26172 2.16394,1.07001 6.12024,5.09074 9.69063,9.84845 l 3.07566,4.09846 -2.32027,2.56821 c -3.30605,3.65932 -9.76858,9.88644 -12.87336,12.40439 -4.1843,3.39345 -11.30745,7.9921 -15.87201,10.24685 C 195.51176,723.43965 186.83425,726 182.02578,726 c -1.88457,0 -2.3953,-0.11266 -2.64447,-0.58333 z M 983,711.63116 C 972.06198,709.95882 962.37114,701.9233 956.30984,689.5 c -5.3364,-10.93753 -6.70874,-21.62247 -4.62022,-35.97279 1.25981,-8.6562 3.53912,-16.57371 10.70488,-37.18487 3.57693,-10.28847 6.71115,-20.22439 6.53024,-20.70176 -0.17678,-0.46647 -24.64123,30.27285 -29.46789,37.02609 -13.52012,18.91672 -22.69845,34.16505 -24.99133,41.51913 -1.15024,3.68923 -1.01662,5.07751 1.15315,11.98087 2.62496,8.3516 2.96253,11.4416 1.46986,13.45474 -0.79932,1.07804 -3.09627,1.63469 -6.92186,1.67745 -6.81203,0.0761 -13.59527,-3.07228 -19.95011,-9.25977 -5.94123,-5.78477 -10.76571,-13.2102 -15.56547,-23.95706 l -0.48442,-1.08463 -5,4.04889 c -16.68035,13.50739 -24.53212,17.85853 -36.97583,20.49057 -5.49194,1.16163 -14.64395,1.46204 -20.09841,0.65972 -11.49365,-1.69065 -21.5254,-6.8727 -31.03177,-16.02991 -6.61531,-6.37234 -11.93529,-13.43957 -17.06272,-22.66667 -1.3244,-2.38333 -2.52561,-4.4607 -2.66935,-4.61638 -0.14374,-0.15568 -2.0616,2.39432 -4.26191,5.66667 -9.19772,13.67904 -15.62275,21.05234 -22.88354,26.26091 -9.35601,6.7116 -18.8947,7.63661 -28.33764,2.74802 -9.59547,-4.96755 -17.52615,-14.30965 -21.04402,-24.7892 -1.6563,-4.93402 -2.17496,-8.42857 -2.36532,-15.93669 -0.33834,-13.34446 1.58032,-23.44307 9.56298,-50.33333 3.49866,-11.78554 5.13214,-17.81316 4.89235,-18.05295 -0.22522,-0.22523 -8.34348,10.38385 -13.05816,17.06462 -2.38333,3.37722 -6.34924,9.25618 -8.81313,13.06436 -19.35538,29.91563 -29.31447,49.77277 -28.58152,56.98787 0.0967,0.95182 1.01226,4.27467 2.0346,7.38411 1.02233,3.10945 2.03408,6.78107 2.24833,8.15916 0.34357,2.2099 0.31904,2.69022 -0.20782,4.06978 -0.49801,1.30401 -0.8402,1.67159 -2.05736,2.21 -3.30328,1.4612 -9.35125,1.36889 -14.10823,-0.21533 -8.46656,-2.81962 -17.93589,-11.34316 -24.86721,-22.38346 -0.9725,-1.54901 -1.84781,-2.99753 -1.94513,-3.21894 -0.11418,-0.25974 -0.38844,-0.1102 -0.77307,0.42151 -0.32787,0.45324 -1.86775,2.61094 -3.42196,4.7949 -7.28032,10.23018 -14.29726,16.72728 -21.34083,19.75979 -10.59744,4.56258 -20.94643,1.60072 -31.50639,-9.01709 -9.06437,-9.11403 -14.703,-20.53486 -16.18375,-32.77958 l -0.41332,-3.41792 -0.73238,1.08459 c -0.40281,0.59652 -3.17794,5.13458 -6.16695,10.08458 -9.74584,16.13977 -15.66063,24.46181 -21.83054,30.71534 -5.71844,5.79593 -10.47281,8.45133 -15.13175,8.45133 -8.79593,0 -22.07809,-9.80672 -30.47387,-22.5 -7.05389,-10.66453 -8.75814,-23.2406 -5.69164,-42 1.81421,-11.09849 4.34982,-20.0953 13.29318,-47.16667 9.86763,-29.86912 11.12027,-34.80815 11.45519,-45.16667 0.18837,-5.82607 0.29961,-6.80967 0.88222,-7.80082 1.93845,-3.29775 7.63733,-3.52265 16.33333,-0.64455 4.46923,1.47916 10.88136,4.49517 14.16667,6.66342 3.11072,2.05302 7.64494,6.67941 9.2604,9.44862 2.56768,4.40151 2.90672,5.86883 2.88831,12.5 -0.0185,6.6618 -0.28165,8.11247 -3.79069,20.89663 -2.87261,10.46549 -5.49198,18.62361 -10.41465,32.4367 -10.72856,30.10454 -13.73576,39.24827 -16.44106,49.99084 -1.0612,4.21394 -2.83564,12.03819 -2.83564,12.5035 0,0.0948 0.29285,0.17233 0.65079,0.17233 3.56843,0 22.01609,-29.07295 41.35021,-65.16667 5.37414,-10.03266 16.70806,-32.39035 19.47196,-38.41109 6.23,-13.57107 10.68422,-27.19085 12.98251,-39.69697 0.44892,-2.44277 0.90525,-4.53044 1.01409,-4.63927 0.4161,-0.41611 3.83699,-0.47487 6.2149,-0.10676 11.60467,1.79643 26.45046,11.69519 30.95685,20.64117 2.16959,4.30701 2.08311,6.5006 -0.68515,17.37959 -2.67854,10.5264 -3.97903,14.7811 -10.9528,35.83333 -8.39566,25.34456 -10.0572,31.09345 -12.49026,43.21602 -2.77623,13.83241 -3.19899,21.00242 -1.39643,23.68383 0.96095,1.42948 1.83225,1.51765 3.89625,0.39428 4.27787,-2.32831 10.27858,-10.30573 16.39379,-21.79413 10.78016,-20.25226 26.94701,-64.2907 34.9364,-95.16666 2.62216,-10.13364 2.73321,-10.80068 2.80242,-16.83334 0.0514,-4.47819 0.17236,-5.72744 0.6512,-6.72421 0.72134,-1.50159 1.02415,-1.62968 4.36993,-1.84848 10.60956,-0.69383 26.12174,7.10717 33.50551,16.84975 5.40852,7.13633 6.24178,13.89953 3.18695,25.86693 -0.83919,3.28752 -1.52579,6.11567 -1.52579,6.28477 0,0.16911 6.67895,-8.429 14.8421,-19.10689 18.22804,-23.84336 23.19253,-29.36261 28.6647,-31.86786 1.65234,-0.75646 2.21197,-0.84851 4.28037,-0.704 3.09006,0.21589 5.50016,1.16347 9.29615,3.65497 10.62913,6.97644 17.73857,15.93179 19.95492,25.13603 1.432,5.9469 0.8221,12.15615 -2.22867,22.68962 -2.04118,7.04762 -3.96049,12.3011 -10.86239,29.73216 -9.35242,23.61998 -12.7432,33.18685 -14.8992,42.03721 -1.82892,7.50772 -2.17116,10.06494 -2.19368,16.39146 -0.0195,5.48064 0.0278,5.95713 0.67867,6.83333 1.95089,2.62639 6.27646,0.0763 11.55792,-6.81394 7.99916,-10.43571 20.55349,-31.99693 22.06639,-37.89755 0.34801,-1.3573 0.50939,-3.59965 0.50939,-7.07802 0,-4.19892 0.15083,-5.80571 0.86052,-9.16696 4.10382,-19.43675 14.37471,-38.20916 28.72033,-52.49303 17.01755,-16.94429 39.12895,-26.44195 61.55922,-26.44195 5.80218,0 9.79261,0.5079 13.52659,1.72168 10.08122,3.27702 16.21852,10.80028 18.71798,22.94498 0.88061,4.27881 1.18695,14.68077 0.6206,21.07293 -0.91668,10.34626 -2.86709,15.63011 -6.45537,17.48821 -2.41016,1.24804 -6.73169,0.29639 -10.62585,-2.33994 -3.86173,-2.61437 -4.25848,-4.90641 -2.45013,-14.15459 1.1173,-5.71409 1.19241,-6.50502 1.187,-12.5 -0.006,-6.94401 -0.42183,-12.14108 -1.08142,-13.52443 -0.58763,-1.23244 -2.05358,-1.28471 -5.54048,-0.19755 -5.53,1.72416 -8.35374,3.4836 -13.30414,8.28966 -6.74736,6.55062 -12.57365,15.23072 -18.59226,27.69905 -13.26793,27.48624 -20.35068,61.19729 -16.12875,76.76639 3.75394,13.84333 16.1484,15.70624 36.15282,5.43384 8.86009,-4.5497 15.30882,-9.22945 22.27948,-16.16785 5.70377,-5.67739 9.5538,-10.87271 12.67889,-17.1092 2.23551,-4.46124 3.78981,-8.53215 6.84321,-17.92318 5.16572,-15.88774 6.65399,-19.69346 19.03159,-48.66667 13.75777,-32.20391 18.78517,-45.08945 22.4854,-57.63154 2.3705,-8.03493 3.42933,-13.39788 3.71197,-18.80102 0.19486,-3.72531 0.33962,-4.56956 0.90724,-5.29117 0.61881,-0.78669 0.8326,-0.84435 2.5527,-0.68837 2.54537,0.2308 9.61467,2.63609 12.66265,4.3084 11.1245,6.10354 22.75425,16.34002 25.83059,22.73601 1.53171,3.18457 1.81183,8.53051 0.80525,15.36769 -1.06575,7.23908 -4.18158,17.18024 -10.70877,34.16667 -3.94314,10.26167 -5.82545,15.51068 -7.05222,19.66579 l -0.54102,1.83246 2.87698,-2.83246 c 1.58233,-1.55785 5.91154,-6.35746 9.62045,-10.66579 10.06738,-11.69444 16.62638,-17.66828 22.76706,-20.73591 2.33824,-1.16809 3.14207,-1.39712 5.35261,-1.52509 2.22314,-0.12869 2.9021,-0.029 4.67171,0.68575 3.0124,1.21678 5.4236,2.97957 9.2215,6.74191 8.1731,8.09637 12.9177,15.12065 14.9078,22.0705 1.0301,3.59739 1.0295,9.98637 0,14.16092 -1.8395,7.44902 -6.053,18.5729 -12.4535,32.87832 -12.62764,28.22329 -14.98558,34.21822 -19.10813,48.5813 -2.19536,7.6487 -2.88553,11.5328 -3.08812,17.37929 l -0.1757,5.07033 0.84972,0.38716 c 1.18759,0.5411 3.35364,-0.2459 6.17961,-2.24525 4.81892,-3.40935 15.19382,-14.78938 22.71682,-24.91768 9.8199,-13.22063 17.5243,-25.59653 33.7398,-54.19822 l 8.7876,-15.5 2.5624,0.0161 c 2.3391,0.0147 2.8064,0.13981 5.3624,1.43581 2.9892,1.51565 6.071,4.01669 7.1996,5.84287 1.5729,2.54508 0.5034,6.26155 -4.8076,16.70524 -12.9848,25.53355 -34.4894,57.05179 -52.0097,76.22805 -9.6079,10.51596 -19.1519,17.72667 -25.68642,19.40668 -2.61032,0.67111 -8.03366,0.92026 -10.80578,0.49643 z M 238.25879,683.58333 c -1.00849,-1.32916 -2.85107,-3.96053 -4.09462,-5.84747 -1.24355,-1.88695 -3.44994,-4.73695 -4.90308,-6.33333 -4.56422,-5.01415 -5.60647,-6.95063 -5.7058,-10.60122 -0.0827,-3.03879 1.32497,-4.24623 4.96036,-4.25486 3.78242,-0.009 5.623,1.41264 9.0028,6.95355 1.93736,3.17614 5.0695,6.42906 7.1522,7.42797 0.82719,0.39674 2.28517,0.83775 3.23996,0.98002 l 1.73597,0.25868 -2.5742,4 c -3.49148,5.42535 -6.529,9.83327 -6.77617,9.8333 -0.11209,2e-5 -1.02893,-1.08747 -2.03742,-2.41664 z m 112.90788,0.72831 c -10.10357,-1.35194 -18.53324,-6.89938 -24.63338,-16.21085 -6.76496,-10.32626 -10.23318,-24.6307 -9.19155,-37.90988 1.14103,-14.54635 4.21051,-25.47122 15.31928,-54.52424 5.24625,-13.72064 8.50784,-23.3106 10.3165,-30.33334 1.58462,-6.15281 1.8501,-7.74993 2.52109,-15.16666 0.60219,-6.65641 1.16444,-10.95481 1.50501,-11.50586 0.47807,-0.77353 5.08456,-1.15985 8.58364,-0.71986 15.48448,1.94707 30.93913,13.82899 33.43866,25.70848 0.63001,2.99422 0.21704,9.45592 -0.99794,15.61481 -0.58926,2.987 -1.02331,5.68052 -0.96455,5.9856 0.0656,0.34044 7.07796,-8.19464 18.15529,-22.09758 17.71391,-22.23235 18.92072,-23.66817 21.61461,-25.71643 4.77493,-3.63055 7.87511,-3.54508 14.83334,0.40892 4.20204,2.38781 6.50638,4.16759 10.45045,8.07154 7.27792,7.20387 12.10487,15.3981 12.7594,21.6604 0.26123,2.49931 -0.12852,4.35986 -2.76315,13.19017 -2.60475,8.73022 -3.6986,11.73854 -9.53852,26.23314 -5.05167,12.53815 -7.4008,19.11584 -8.74993,24.50021 -0.86519,3.45296 -0.90624,3.9479 -0.70495,8.49979 0.14051,3.1775 0.0866,5.28878 -0.15739,6.16277 -0.74514,2.66928 -3.98935,4.5039 -7.96437,4.5039 -7.03077,0 -25.75727,-8.56738 -31.79977,-14.54841 -1.94032,-1.92058 -2.49422,-3.11414 -2.75849,-5.94413 -0.37219,-3.9857 0.8671,-8.98572 5.82649,-23.50746 2.43888,-7.14137 3.5265,-11.31336 3.34246,-12.82122 -0.0924,-0.75691 -1.07469,0.46348 -6.47778,8.04784 -14.91496,20.93624 -20.5746,29.63705 -30.20801,46.44004 -7.29057,12.71651 -12.70591,23.9855 -14.09621,29.33334 -0.81493,3.13463 -0.49059,5.12243 2.06071,12.62988 3.16525,9.31404 3.09951,11.77906 -0.36001,13.49725 -1.50725,0.74859 -5.84369,0.98848 -9.36093,0.51784 z M 116,559.5441 c -10.30991,-4.55731 -17.804013,-9.71141 -23.446764,-16.12559 -8.027363,-9.1248 -12.722505,-19.91281 -14.399013,-33.08454 -0.460427,-3.6174 -0.535545,-6.09581 -0.388734,-12.82558 0.227063,-10.40851 1.063827,-16.36003 3.773852,-26.84172 2.843587,-10.99828 4.727501,-15.88699 10.918534,-28.33334 4.552089,-9.15144 7.238208,-15.41502 6.79903,-15.8542 -0.183537,-0.18354 -3.807148,-0.9436 -12.479148,-2.61753 -7.59314,-1.46569 -10.943581,-2.56397 -13.944339,-4.571 -4.336914,-2.90071 -5.953642,-6.20326 -5.935127,-12.12393 0.02972,-9.50462 3.276826,-14.58616 10.12271,-15.84152 3.803927,-0.69754 9.037169,0.0994 18.7921,2.86165 6.086969,1.72363 15.815149,3.4866 19.125569,3.466 4.28038,-0.0266 7.12955,-1.73611 12.98317,-7.7898 12.22456,-12.64239 29.98677,-38.00046 46.19362,-65.94794 21.3373,-36.79457 33.24009,-67.32604 30.44038,-78.08173 -0.28633,-1.1 -0.62588,-2.81031 -0.75455,-3.80069 l -0.23396,-1.8007 6.96633,0.20419 c 25.32439,0.74229 39.71911,8.64599 42.99714,23.60841 0.78761,3.59501 0.71874,10.16794 -0.15732,15.01407 -2.56686,14.19924 -11.35863,32.57276 -25.65158,53.60806 -4.02706,5.92672 -8.52521,12.20344 -17.55768,24.5 -13.1308,17.87592 -23.97219,33.80314 -23.39923,34.3761 0.30187,0.30187 7.43482,-0.53774 11.93595,-1.40496 18.7098,-3.60479 37.67011,-13.29426 55.96573,-28.60072 4.10555,-3.43479 13.18624,-12.39684 17.29127,-17.06537 15.30693,-17.40814 25.53829,-36.01985 30.52149,-55.52118 5.95563,-23.30691 3.33931,-42.17656 -7.91179,-57.06212 -10.08733,-13.34584 -27.99308,-22.65408 -50.06764,-26.02748 -12.0423,-1.84028 -26.07665,-1.96303 -38.83333,-0.33966 -30.86845,3.92822 -56.5468,15.52089 -81.04561,36.58858 -28.943211,24.88966 -49.155253,57.76345 -55.57525,90.39014 -1.50573,7.65218 -1.852151,11.62971 -1.843503,21.16667 0.0084,9.30908 0.489987,14.44082 1.954747,20.83138 0.251881,1.09892 0.40416,2.05185 0.338397,2.11761 -0.245715,0.24572 -6.792281,-1.77531 -10.328784,-3.18865 C 52.012343,370.56782 46.73767,367.09463 41.323821,361.67809 33.294775,353.64505 28.794452,344.34274 26.479963,330.99535 25.641628,326.16078 25.46056,313.1695 26.141785,306.73171 28.644388,283.08127 38.085307,257.63993 52.076898,236.8419 65.094083,217.49229 82.77866,200.50521 103.42832,187.51584 129.00816,171.42522 157.05308,162.40369 188,160.3107 c 7.3031,-0.49392 23.95215,-0.21838 30.83333,0.51028 34.74125,3.67883 65.42409,15.93068 89.05961,35.56206 5.16968,4.29388 12.90426,12.13335 16.85637,17.08497 16.46765,20.63241 24.43905,45.36816 22.91664,71.11176 -0.97338,16.45962 -4.90568,31.93223 -12.3827,48.72289 -10.51193,23.60593 -25.04593,42.76895 -43.15626,56.90134 -19.69139,15.36617 -45.18156,26.50116 -77.62699,33.91017 -8.45104,1.92982 -11.79486,2.48846 -27.19956,4.54417 -18.55893,2.47663 -27.12545,4.11794 -30.0388,5.75534 -1.47075,0.82661 -3.06498,3.06082 -6.24574,8.75299 -2.89922,5.18834 -9.91495,19.19949 -12.1843,24.33333 -12.63715,28.5884 -19.49827,59.08734 -19.49827,86.67347 0,4.977 -0.0973,6.49115 -0.41666,6.48445 -0.22917,-0.005 -1.54167,-0.50603 -2.91667,-1.11382 z m 419.33333,-42.63036 c -3.10327,-3.31238 -6.75195,-6.47254 -9.93006,-8.60053 -2.34261,-1.56855 -2.3966,-1.63436 -1.5,-1.82853 2.8223,-0.61118 6.98279,-1.91796 8.41176,-2.64207 l 1.63611,-0.82908 1.04405,1.69679 c 0.57422,0.93323 1.97596,2.65191 3.11498,3.81927 2.04402,2.0949 2.06586,2.13714 1.68055,3.25007 -0.21471,0.62018 -0.65657,2.64846 -0.98191,4.5073 -0.32534,1.85884 -0.67792,3.3607 -0.7835,3.33747 -0.10559,-0.0232 -1.31698,-1.24303 -2.69198,-2.71069 z m -138.97779,-7.59343 c -2.41916,-2.20317 -7.2246,-5.60911 -10.60166,-7.51411 -1.51037,-0.85199 -2.67428,-1.66532 -2.58648,-1.80738 0.0878,-0.14207 0.57355,-0.36207 1.07945,-0.4889 1.84403,-0.46229 7.66484,-3.58829 10.74663,-5.77136 4.7082,-3.33515 13.45457,-12.31271 17.90287,-18.37606 0.0555,-0.0756 1.039,0.75622 2.1856,1.84855 4.16846,3.97118 9.44689,7.7765 14.8611,10.71364 l 2.44305,1.32533 -2.27638,0.24354 c -9.56229,1.02301 -20.28436,7.63537 -28.10271,17.33108 -1.85179,2.29645 -3.47342,4.16855 -3.60362,4.16023 -0.1302,-0.008 -1.05173,-0.75737 -2.04785,-1.66456 z m 286.47779,-0.84482 c -3.24561,-2.66313 -8.1101,-5.94432 -11.56991,-7.80414 l -2.56991,-1.38145 0.68832,-1.72828 c 0.37857,-0.95056 1.44246,-3.67829 2.3642,-6.06162 0.92174,-2.38333 1.76846,-4.43565 1.8816,-4.56071 0.11314,-0.12505 2.3057,0.12998 4.87237,0.56674 2.56667,0.43676 6.73564,0.97189 9.26439,1.18918 5.81351,0.49954 19.77355,0.22225 25.90228,-0.51451 4.4505,-0.53501 14.11112,-2.05233 14.91666,-2.34284 0.30746,-0.11088 0.41667,0.4493 0.41667,2.13717 v 2.28744 l -1.41667,-0.34521 c -0.77916,-0.18986 -3.51666,-0.34308 -6.08333,-0.34048 -5.71809,0.006 -9.5521,0.89271 -14.65884,3.39102 -5.13681,2.51303 -8.71928,5.2641 -15.33573,11.77667 -3.30299,3.25113 -6.00543,5.91293 -6.00543,5.91512 0,0.002 -1.2,-0.98065 -2.66667,-2.1841 z m -51.66666,-2.03637 c -5.77378,-0.73707 -13.30071,-2.71559 -18.91533,-4.97207 -5.10141,-2.05023 -8.6603,-4.21604 -11.46707,-6.97848 -2.77354,-2.72973 -3.27844,-3.96709 -3.6298,-8.89564 -0.56149,-7.87591 1.37957,-18.03697 6.67194,-34.92626 1.17769,-3.75834 3.28197,-10.58334 4.67616,-15.16667 1.3942,-4.58333 6.79182,-21.15833 11.99471,-36.83333 10.10903,-30.45597 13.52194,-41.40071 17.20164,-55.16341 5.79222,-21.66385 7.72233,-31.58238 8.23177,-42.30181 0.23504,-4.94549 0.23972,-4.968 1.17743,-5.66666 2.76306,-2.05869 14.60968,0.63075 23.55855,5.3483 8.81756,4.64833 17.40305,11.16684 20.12203,15.27762 l 0.87797,1.32738 v 9.60896 c 0,5.91874 0.12044,9.53452 0.31363,9.41512 0.1725,-0.10661 5.23011,-7.4243 11.23914,-16.26154 11.41198,-16.78313 14.13471,-20.27101 18.67575,-23.9241 3.03029,-2.43774 5.65338,-3.80707 9.05697,-4.72803 3.39376,-0.91829 12.13016,-0.97707 17.54784,-0.11807 19.99038,3.1696 31.78494,17.21365 34.99002,41.6634 1.85999,14.18874 0.17495,33.16705 -4.33252,48.79643 -0.61751,2.14119 -4.12374,11.23741 -7.79161,20.21381 -3.66787,8.97641 -6.6189,16.3707 -6.55783,16.43176 0.18457,0.18457 7.78835,-5.59118 12.21043,-9.27491 4.86852,-4.05562 17.23858,-16.29909 21.53128,-21.31092 11.97289,-13.97865 19.29222,-24.99608 24.58063,-37 2.06261,-4.68181 2.68705,-6.34305 7.20449,-19.16667 2.27042,-6.44499 8.23287,-21.53862 16.32055,-41.31457 11.12448,-27.20151 16.72682,-43.85824 19.89594,-59.15405 0.99622,-4.80825 1.25427,-6.8855 1.43252,-11.53138 0.23731,-6.18547 0.61305,-7.56986 2.22043,-8.18098 3.54519,-1.34788 12.77816,2.36672 23.22774,9.34495 6.02715,4.02493 9.57389,6.91647 12.09352,9.85945 4.95264,5.78478 6.79442,10.2465 6.80148,16.47658 0.005,4.13636 -0.63313,7.92763 -2.68127,15.93798 -5.2374,20.4837 -10.43085,34.76065 -26.63801,73.22869 -10.97763,26.05562 -20.05984,49.23625 -25.33653,64.66667 -5.02346,14.6899 -8.00295,28.98348 -8.00419,38.3987 l -4e-4,3.06536 1.75,-0.49461 c 0.9625,-0.27204 3.11993,-1.16177 4.79429,-1.97717 7.64956,-3.72526 15.96276,-12.21615 25.59999,-26.14716 7.97003,-11.52102 10.4491,-16.52136 15.32391,-30.9088 3.90809,-11.53425 5.905,-16.45211 8.7407,-21.52603 13.47172,-24.10496 36.87941,-42.2739 62.60498,-48.59368 7.16854,-1.76103 10.77308,-2.13253 20.51946,-2.11483 7.51743,0.0136 9.40539,0.12116 12.6734,0.72171 13.9833,2.56962 22.3078,8.93543 25.1641,19.24317 0.9328,3.36663 1.0334,10.56679 0.2146,15.36821 -4.5636,26.76042 -32.90697,61.75153 -60.88543,75.1658 -6.04049,2.89611 -9.96989,4.06722 -17.29082,5.15335 l -1.29081,0.1915 0.17282,5.8939 c 0.19377,6.60871 0.62693,8.82301 2.46788,12.61594 1.42137,2.92846 4.54228,6.07011 7.2711,7.3194 1.02687,0.47012 3.17267,1.08476 4.76843,1.36586 10.84255,1.91 29.77778,-5.58451 44.73473,-17.70588 10.7615,-8.72127 20.9394,-20.41646 31.3599,-36.03474 4.7381,-7.10146 9.3605,-14.64624 16.1332,-26.33334 3.0811,-5.31666 5.9633,-10.15432 6.405,-10.75035 1.9399,-2.61783 5.0397,-2.88348 9.2577,-0.79337 2.8527,1.41355 6.8176,4.71412 7.6903,6.40172 0.268,0.51823 0.4872,1.79453 0.4872,2.83623 0,1.62183 -0.3171,2.59421 -2.2071,6.76655 -10.5256,23.23688 -23.6311,44.65088 -37.6625,61.53922 -4.8299,5.81337 -14.9947,15.92324 -20.1537,20.04475 -15.5189,12.39816 -30.58412,18.87677 -46.81,20.13009 -11.86854,0.91676 -25.22296,-1.63109 -34.5,-6.58215 -12.53175,-6.68805 -23.25063,-17.93847 -32.02357,-33.61157 -1.99962,-3.57238 -5.33406,-10.46724 -6.10329,-12.62019 -0.27366,-0.76595 0.0555,-1.12184 -4.29042,4.63907 -16.50246,21.87562 -31.32237,33.82413 -45.32022,36.53934 -3.40975,0.66139 -9.29038,0.50829 -12.74248,-0.33175 -10.78741,-2.62504 -19.862,-10.60563 -26.00993,-22.87425 -4.75619,-9.4913 -6.37249,-17.56799 -4.97896,-24.87985 0.74305,-3.8988 0.38471,-8.57816 -0.53154,-6.94092 -0.4222,0.75444 -10.66626,10.18803 -14.49959,13.35245 -26.74997,22.08213 -55.14839,33.6758 -87.39856,35.68049 -10.14038,0.63033 -21.2357,-0.4032 -27.76391,-2.58621 -1.37731,-0.46057 -5.1292,-2.08958 -8.33753,-3.62002 -6.28548,-2.99831 -8.24015,-3.74083 -8.66599,-3.29192 -0.1492,0.15729 -4.96394,12.32348 -10.6994,27.03598 l -10.42813,26.75 -2.51991,-0.05 c -1.38594,-0.0275 -2.9699,-0.10739 -3.5199,-0.1776 z m 51.59893,-64.60215 c 10.68261,-2.78247 25.05549,-19.69897 34.87874,-41.05136 9.7605,-21.21597 15.99674,-44.35651 18.17239,-67.4314 0.28413,-3.01352 0.5166,-7.18284 0.5166,-9.26516 0,-3.57528 -0.0455,-3.83156 -0.81818,-4.6042 -0.5673,-0.56731 -1.18815,-0.81818 -2.02474,-0.81818 -1.01266,0 -1.5309,0.30803 -3.22466,1.91666 -3.7339,3.54624 -10.87819,12.71285 -15.6668,20.10156 -9.95179,15.35541 -19.28912,33.32877 -34.71107,66.81511 -4.30609,9.35 -8.82233,19.09157 -10.0361,21.64794 -1.21377,2.55636 -2.14518,4.80636 -2.0698,5 0.43767,1.12427 3.49948,4.66855 4.95784,5.73909 3.15911,2.319 6.27912,2.92582 10.02578,1.94994 z m 279.09798,-44.67948 c 12.31959,-7.37138 25.4729,-19.94887 33.34057,-31.881 4.73724,-7.18452 8.60345,-15.73527 10.50295,-23.22872 1.1488,-4.53201 1.2167,-6.29764 0.2877,-7.47869 -1.0836,-1.37755 -2.4723,-1.65783 -5.4199,-1.09387 -5.76611,1.10325 -10.22406,3.79597 -16.27912,9.83305 -9.12389,9.09681 -17.62438,22.84403 -24.0278,38.85841 -2.05936,5.15026 -4.93465,13.82091 -4.93465,14.88079 0,1.15322 1.04729,2.28587 2.11358,2.28587 0.42914,0 2.41664,-0.97912 4.41667,-2.17584 z m -499.9695,103.02302 c -1.24992,-0.96558 -3.57492,-2.52519 -5.16666,-3.4658 l -2.89409,-1.7102 2.07026,-0.002 c 5.70586,-0.006 12.25754,-1.2525 18.06565,-3.43651 l 3.1359,-1.17918 1.8641,1.62099 c 1.02525,0.89155 2.23909,1.91692 2.69743,2.2786 l 0.83333,0.6576 -0.83333,0.15943 c -6.37434,1.21953 -11.46591,3.15932 -15.04864,5.73326 -0.89076,0.63995 -1.80673,1.14917 -2.03547,1.13161 -0.22874,-0.0176 -1.43856,-0.82197 -2.68848,-1.78755 z M 511,480.1888 c -10.48346,-2.21039 -22.07871,-11.89606 -27.56106,-23.02213 -0.81303,-1.65 -1.6352,-2.95724 -1.82705,-2.90496 -0.19184,0.0523 -1.98895,1.549 -3.99357,3.32606 -6.7024,5.94157 -11.83924,9.09847 -16.64996,10.23245 -2.71807,0.64069 -7.59212,0.65321 -10.56838,0.0271 -11.65325,-2.45133 -24.12834,-13.18336 -30.70325,-26.4133 -2.69751,-5.42787 -3.85286,-9.48699 -4.28694,-15.06143 l -0.24312,-3.12212 -10.82106,16.76875 c -11.15721,17.28967 -15.11099,22.73192 -20.34401,28.00292 -5.28482,5.32317 -9.09547,7.30933 -14.51778,7.56684 -4.32781,0.20553 -7.62528,-0.59341 -12.65049,-3.06507 -15.33908,-7.54458 -24.4501,-19.16923 -27.37153,-34.92304 -0.72268,-3.89706 -0.96761,-12.99821 -0.48728,-18.10691 0.75854,-8.06786 2.8057,-17.96174 5.89572,-28.49399 0.83371,-2.84167 4.2673,-13.49167 7.63019,-23.66667 7.61144,-23.02965 9.67414,-30.42552 10.98193,-39.37611 0.65459,-4.48005 0.65198,-6.27064 -0.0155,-10.63411 -0.48103,-3.14479 -0.48457,-3.63555 -0.0339,-4.71407 0.4197,-1.00448 0.82572,-1.32919 2.45169,-1.9607 2.93233,-1.1389 9.69661,-1.2982 14.36503,-0.3383 11.47196,2.35881 22.22046,8.49633 27.13504,15.49444 2.47189,3.51984 2.78894,4.90947 2.74446,12.02885 -0.0827,13.22888 -3.60659,26.31385 -18.13363,67.33334 -9.11597,25.74043 -11.73625,34.1011 -13.99737,44.66225 -1.14973,5.3701 -1.16948,5.61395 -0.49985,6.1697 0.40068,0.33253 0.65278,0.31238 1.2865,-0.10286 2.26594,-1.4847 11.55626,-15.62282 22.75706,-34.632 23.88245,-40.53152 38.00643,-69.08311 45.83563,-92.65665 3.25257,-9.79341 4.62932,-15.65948 4.90226,-20.88764 l 0.22022,-4.21826 1.33333,-0.43969 c 1.98895,-0.6559 6.97505,-0.54478 10.22042,0.22777 11.75769,2.79888 25.75448,11.97151 29.30426,19.20419 1.10246,2.24627 1.14059,2.45396 1.10151,6 -0.0617,5.6005 -1.72296,14.54429 -4.47881,24.11309 -0.56392,1.95805 -4.00395,12.5601 -7.64451,23.5601 -7.83964,23.68755 -8.94421,27.56951 -11.6733,41.02514 -1.90615,9.39819 -2.87436,19.13762 -2.39993,24.14152 l 0.23703,2.5 1.55495,-0.0515 c 4.55573,-0.15099 10.41518,-5.68338 14.5424,-13.73067 3.3263,-6.48566 4.8426,-11.24957 8.23928,-25.88621 3.41583,-14.71916 4.12048,-16.92355 11.54787,-36.12569 7.29387,-18.85692 9.71924,-26.22709 11.43481,-34.74778 0.71597,-3.55601 0.84859,-5.13235 0.85531,-10.16666 0.008,-5.91118 0.2594,-8.19232 0.983,-8.91554 0.2461,-0.24598 1.89688,-0.3601 4.77591,-0.33015 10.99465,0.11438 21.05414,4.21694 28.42617,11.59304 3.11564,3.11736 5.04256,5.84479 6.82119,9.65492 1.86288,3.9906 2.35221,6.13842 2.5531,11.20627 0.22708,5.72865 -0.41615,9.23985 -2.7174,14.83334 l -0.54856,1.33333 1.26599,-1.46963 c 2.33785,-2.71393 6.74745,-8.48661 10.84474,-14.19704 6.51285,-9.07701 10.78497,-14.62474 16.45003,-21.36183 8.10506,-9.63882 10.61116,-11.92916 14.76945,-13.49791 2.53315,-0.95566 6.32282,-0.77814 9.29469,0.43538 7.90569,3.22818 17.71006,12.26864 21.78995,20.09217 2.20409,4.22653 3.01501,7.40867 3.20234,12.56631 0.32768,9.02198 -1.50561,15.38703 -10.58946,36.76588 -5.46024,12.85069 -7.48045,18.2673 -8.88903,23.83334 -1.19719,4.7307 -1.38073,6.94345 -0.95839,11.55422 0.57618,6.29034 -1.93489,9.16963 -7.98167,9.15208 -6.32428,-0.0183 -18.41701,-4.62787 -27.05494,-10.31282 -3.82263,-2.51582 -5.56931,-4.08465 -6.70466,-6.02199 -0.75883,-1.29485 -0.90723,-1.9839 -1.01103,-4.69455 -0.17501,-4.57004 0.72219,-8.46357 4.61104,-20.01028 3.17376,-9.42347 4.65223,-14.59437 4.65725,-16.28849 0.002,-0.77415 -5.02318,5.94997 -14.04216,18.78849 -16.32977,23.24542 -32.28529,50.88794 -36.3642,63 -1.58188,4.6973 -1.45963,6.0502 1.26943,14.04841 2.03739,5.9711 2.26054,6.88453 2.28207,9.34137 0.0285,3.24786 -0.47454,4.1744 -2.93593,5.40802 -1.97998,0.99235 -6.57974,1.25215 -9.87354,0.55767 z m 60.22953,-2.54761 c -0.94424,-1.43853 -4.6559,-4.22706 -7.26348,-5.45697 -3.57383,-1.68566 -5.88166,-2.18405 -10.11942,-2.18534 l -3.67996,-10e-4 -0.5782,-2.97856 c -0.31801,-1.63821 -1.10551,-4.55463 -1.75,-6.48094 -0.64449,-1.92631 -1.1718,-3.66818 -1.1718,-3.87081 0,-0.79442 6.87726,-14.1843 8.85066,-17.23206 l 0.47348,-0.73126 3.08793,1.82971 c 4.09176,2.42452 10.21112,5.38204 14.84998,7.17707 4.3923,1.69962 4.14213,0.75949 2.13638,8.02844 -1.69593,6.14617 -2.97538,12.45043 -3.706,18.26064 -0.55601,4.42169 -0.57566,4.48505 -1.12957,3.64119 z M 806.88231,315.58333 C 805.00492,308.77135 801.36707,300.57372 797.74807,295 792.51045,286.9334 785.60208,280.02829 778.13733,275.39851 766.77531,268.35156 752.02969,264.78526 737,265.44924 c -15.50553,0.685 -26.09539,5.6675 -37.58114,17.68181 l -3.05624,3.19688 -3.4529,-2.2473 c -1.8991,-1.23601 -5.23369,-3.2223 -7.41022,-4.41396 -2.35429,-1.289 -4.57623,-2.78854 -5.48521,-3.70187 -2.24308,-2.25379 -3.31232,-2.74071 -11.0008,-5.00954 -2.46757,-0.72817 -5.39093,-1.80349 -6.49633,-2.3896 -2.76342,-1.46523 -5.4697,-4.30789 -7.10589,-7.464 -2.44815,-4.72232 -2.57873,-6.78716 -0.48453,-7.66217 1.36405,-0.56994 2.82559,-0.43614 8.16332,0.74734 6.46767,1.434 9.86702,1.47238 10.59102,0.11957 0.19572,-0.3657 0.2602,-0.9663 0.14329,-1.33465 -0.43316,-1.36474 -3.65888,-4.76219 -9.25684,-9.74962 -6.38178,-5.68577 -9.17133,-8.57506 -11.63931,-12.05546 -3.31778,-4.67882 -4.19209,-7.31754 -2.94844,-8.89859 2.0027,-2.54602 8.40397,-1.2037 22.18689,4.65248 13.38085,5.68536 19.54525,7.25797 21.56444,5.50135 1.03369,-0.89927 1.07364,-2.29959 0.12113,-4.24645 -0.62886,-1.28533 -1.97451,-2.83859 -4.7804,-5.51792 -7.5293,-7.18969 -7.73638,-8.27814 -2.1422,-11.25981 1.99119,-1.0613 2.01162,-1.0644 7.01122,-1.0644 5.71465,0 5.52228,0.109 5.48659,-3.10874 -0.0248,-2.23923 -1.71353,-5.4985 -5.29477,-10.21922 -3.61795,-4.76912 -4.12988,-5.6072 -4.13143,-6.76362 -9.3e-4,-0.68673 0.21894,-1.00863 0.85378,-1.25 2.51558,-0.95642 7.45788,-0.0231 17.5585,3.3157 12.62725,4.17403 15.24607,4.63127 15.94821,2.78449 0.77979,-2.05098 -1.31109,-6.1396 -6.69507,-13.09194 -3.98272,-5.14288 -6.05356,-8.51965 -6.49035,-10.58333 -0.3562,-1.68292 0.0813,-3.02707 1.16822,-3.58913 3.5122,-1.81623 11.85526,1.41364 32.51433,12.58737 14.37543,7.77514 19.02809,9.91842 21.53101,9.91842 h 1.37252 l -0.21577,-2.32157 c -0.24068,-2.58966 -1.28652,-5.76401 -2.70765,-8.21828 -1.42314,-2.45776 -6.73099,-7.53419 -12.50565,-11.96041 -5.97211,-4.57757 -8.85106,-7.33623 -11.27596,-10.80485 -1.94038,-2.77555 -2.61741,-4.64845 -2.05812,-5.69349 0.48639,-0.90883 3.0882,-0.89413 9.10051,0.0514 5.3996,0.8492 7.00083,0.6822 7.16704,-0.74744 0.13605,-1.17032 -2.04269,-4.01525 -5.98538,-7.8155 -4.0834,-3.93588 -7.39795,-6.6843 -15.28142,-12.67133 -11.62779,-8.83062 -12.66667,-9.75999 -12.66667,-11.33153 0,-2.76259 2.77189,-3.2388 8.27398,-1.42146 4.07588,1.34626 9.41644,4.0628 17.89269,9.10132 21.27741,12.6479 27.51266,15.96334 30.86834,16.41343 2.7431,0.36792 1.75587,-1.39719 -3.80977,-6.81166 -7.62187,-7.41485 -15.41396,-13.93525 -29.3919,-24.59509 -12.74717,-9.72122 -21.86121,-17.243734 -27.44907,-22.655831 -3.01244,-2.917683 -6.66149,-7.058726 -7.86225,-8.9223 -0.47083,-0.730733 6.11611,2.42422 34.27489,16.416667 19.17176,9.526684 35.07211,17.321244 35.33412,17.321244 0.82119,0 2.20231,-1.96101 2.20231,-3.12698 0,-1.42158 -1.4456,-3.64552 -3.69053,-5.6776 -1.88656,-1.70769 -7.9465,-6.273687 -17.30947,-13.042209 -9.86882,-7.134195 -15.03295,-11.605174 -17.01588,-14.731929 -0.84648,-1.334769 -0.98412,-1.875543 -0.98412,-3.866513 v -2.314708 l 1.78205,0.183924 c 1.08381,0.11186 3.07555,0.773756 5.08333,1.689301 1.81571,0.827957 3.85206,1.605671 4.52523,1.728252 2.66645,0.485551 4.77236,-0.797412 6.62552,-4.036401 0.56927,-0.994991 1.34613,-1.97556 1.72634,-2.179042 2.33061,-1.247309 6.00371,0.246619 23.25753,9.459339 14.69392,7.845857 24.17668,13.469462 36.66666,21.744595 32.27022,21.380351 62.00863,47.290941 88.9003,77.457371 12.87842,14.44669 18.23632,21.37045 34.60052,44.7126 3.27745,4.675 8.27556,11.65 11.10691,15.5 5.23102,7.11301 6.98041,10.10821 7.30134,12.5009 0.21497,1.60272 0.0179,1.64149 -2.33681,0.45971 -1.96285,-0.98509 -4.32086,-2.77541 -5.59643,-4.24907 -1.21546,-1.40422 -1.64249,-0.94032 -1.64249,1.78432 0,2.30699 -0.45662,3.33747 -1.47886,3.33747 -1.50182,0 -6.34283,-6.30839 -13.68516,-17.83333 C 937.51708,230.05 935.25522,226.825 934.47629,226 c -0.77892,-0.825 -2.46645,-3.075 -3.75005,-5 -5.91429,-8.86958 -14.69941,-16.69592 -27.14386,-24.18147 -13.20448,-7.94273 -22.87198,-11.14621 -32.37229,-10.72707 -4.80733,0.21209 -8.23137,1.03726 -12.02543,2.89803 -5.75483,2.82243 -9.93203,6.99661 -12.85317,12.84384 -2.45243,4.90904 -3.29082,8.61332 -3.65899,16.16667 -0.24985,5.12593 -0.49453,7.0105 -1.44979,11.16667 -3.01234,13.10618 -7.67939,26.73334 -17.08399,49.88291 -7.19021,17.69886 -14.64963,36.29879 -15.32008,38.20042 -0.33935,0.9625 -0.70199,1.75 -0.80585,1.75 -0.10387,0 -0.61259,-1.5375 -1.13048,-3.41667 z M 0.04950401,157.58333 0,0 271.25,0.06784845 C 420.4375,0.10516509 541.225,0.17615753 539.66667,0.22560941 456.93902,2.8508744 377.72835,25.515146 306.5,66.940767 276.11655,84.611448 246.06491,106.84108 220.3977,130.63189 l -4.45777,4.13188 -15.38663,0.0548 c -18.26144,0.065 -25.38892,0.69035 -40.34338,3.5398 -21.1885,4.03729 -43.7171,12.44408 -62.876587,23.46306 C 69.264067,177.96455 45.081582,200.95517 28.074537,227.66667 12.43213,252.23484 2.0024913,283.57084 0.35257771,310.95768 0.21311437,313.27262 0.07673121,244.25417 0.04950401,157.58333 Z M 929.76552,291.40148 c -0.29987,-0.1906 -0.1488,-1.05195 0.59833,-3.41156 3.2226,-10.17768 6.91417,-24.78393 7.82703,-30.96883 l 0.60867,-4.12395 1.28665,1.46809 c 3.8021,4.33832 10.02345,13.90187 13.84648,21.28502 1.56057,3.01383 1.77941,3.66553 1.62285,4.83281 -0.19889,1.48283 -1.44591,2.85027 -2.59927,2.85027 -1.13145,0 -8.16929,-3.52687 -11.01017,-5.51753 -4.28877,-3.00522 -6.13857,-3.51605 -7.14884,-1.97417 -0.74664,1.13951 -0.68217,3.70098 0.17545,6.97115 1.14699,4.37353 0.81367,7.03182 -1.04496,8.33365 -0.76972,0.53913 -3.45629,0.70375 -4.16222,0.25505 z"
       id="path1" />
  </g>
</svg>
